<mxfile host="app.diagrams.net" modified="2022-06-21T22:52:21.075Z" agent="5.0 (Windows NT 10.0; Win64; x64) AppleWebKit/537.36 (KHTML, like Gecko) Chrome/101.0.4951.67 Safari/537.36 OPR/87.0.4390.58 (Edition std-1)" etag="O51Nlu4ZiEVmikAVL3By" version="20.0.2" type="github">
  <diagram id="0vwtudb650Sv3NUprel-" name="Page-1">
    <mxGraphModel dx="1061" dy="615" grid="1" gridSize="10" guides="1" tooltips="1" connect="1" arrows="1" fold="1" page="1" pageScale="1" pageWidth="827" pageHeight="1169" math="0" shadow="0">
      <root>
        <mxCell id="0" />
        <mxCell id="1" parent="0" />
        <mxCell id="JIeW6wJsBn_5-ZVFN8xC-1" value="Entity" style="whiteSpace=wrap;html=1;align=center;" vertex="1" parent="1">
          <mxGeometry x="110" y="190" width="130" height="60" as="geometry" />
        </mxCell>
      </root>
    </mxGraphModel>
  </diagram>
</mxfile>
